<?xml version="1.0" encoding="UTF-8" standalone="no"?>
<!-- Created with Inkscape (http://www.inkscape.org/) -->

<svg
   xmlns:dc="http://purl.org/dc/elements/1.1/"
   xmlns:cc="http://creativecommons.org/ns#"
   xmlns:rdf="http://www.w3.org/1999/02/22-rdf-syntax-ns#"
   xmlns:svg="http://www.w3.org/2000/svg"
   xmlns="http://www.w3.org/2000/svg"
   xmlns:xlink="http://www.w3.org/1999/xlink"
   xmlns:sodipodi="http://sodipodi.sourceforge.net/DTD/sodipodi-0.dtd"
   xmlns:inkscape="http://www.inkscape.org/namespaces/inkscape"
   viewBox="0 0 50.005965 131.43128"
   preserveAspectRatio="xMinYMin meet"
   id="svg2"
   version="1.1"
   inkscape:version="0.48.2 r9819"
   sodipodi:docname="balloon_color_letter.svg"
   width="100%"
   height="100%">
  <metadata
     id="metadata4417">
    <rdf:RDF>
      <cc:Work
         rdf:about="">
        <dc:format>image/svg+xml</dc:format>
        <dc:type
           rdf:resource="http://purl.org/dc/dcmitype/StillImage" />
        <dc:title></dc:title>
      </cc:Work>
    </rdf:RDF>
  </metadata>
  <sodipodi:namedview
     pagecolor="#ffffff"
     bordercolor="#666666"
     borderopacity="1"
     objecttolerance="10"
     gridtolerance="10"
     guidetolerance="10"
     inkscape:pageopacity="0"
     inkscape:pageshadow="2"
     inkscape:window-width="1196"
     inkscape:window-height="740"
     id="namedview4415"
     showgrid="false"
     inkscape:zoom="11.891674"
     inkscape:cx="28.549386"
     inkscape:cy="57.519235"
     inkscape:window-x="0"
     inkscape:window-y="0"
     inkscape:window-maximized="0"
     inkscape:current-layer="svg2"
     fit-margin-top="0"
     fit-margin-left="0"
     fit-margin-right="0"
     fit-margin-bottom="0" />
  <defs
     id="defs4">
    <linearGradient
       id="linearGradient3938">
      <stop
         style="stop-color:#ffffff;stop-opacity:0.71428573;"
         offset="0"
         id="stop3940" />
      <stop
         style="stop-color:#ffffff;stop-opacity:0;"
         offset="1"
         id="stop3942" />
    </linearGradient>
    <radialGradient
       inkscape:collect="always"
       xlink:href="#linearGradient3938"
       id="radialGradient3960"
       cx="1111.5961"
       cy="371.37482"
       fx="1111.5961"
       fy="371.37482"
       r="177.29704"
       gradientTransform="matrix(0.01816292,0.11510595,-0.110711,0.01746942,40.363185,-110.51375)"
       gradientUnits="userSpaceOnUse" />
  </defs>
  <path
     id="path3924"
     d="m 26.107601,72.523949 c 0,0 -0.208919,5.99208 0.285376,8.92843 0.517396,3.07358 2.818696,5.81188 2.777472,8.92843 -0.04157,3.14351 -2.782396,9.409007 -1.475131,13.097901 1.307265,3.6889 1.60261,5.85606 2.216761,9.27947 0.614151,3.42341 -0.646474,9.84808 -3.572361,17.7015"
     style="fill:none;stroke:#000000;stroke-width:2.50000011;stroke-linecap:round;stroke-linejoin:miter;stroke-miterlimit:4;stroke-opacity:1;stroke-dasharray:none"
     inkscape:connector-curvature="0"
     sodipodi:nodetypes="csszzc" />
  <path
     id="color_fill"
     d="m 25.388038,0.41642981 c -2.289305,-0.009 -4.994978,0.26494 -6.439026,0.70629999 -3.327455,1.01699 -6.480251,2.62403 -8.596923,4.38079 -1.6407741,1.36179 -4.1325619,3.99621 -4.7837719,5.0567592 -0.152526,0.2484 -0.5212565,0.81909 -0.8189607,1.26527 -1.6438288,2.46368 -3.0311324,6.03766 -3.75682081,9.68454 -1.01619652,5.10682 -0.71385244,9.78895 1.03561721,16.08457 0.063577,0.22879 0.2394867,0.75916 0.3899814,1.17861 0.1504933,0.41945 0.4084717,1.13701 0.5719727,1.59459 0.3434568,0.9612 0.4930835,1.30045 1.4342649,3.18918 1.0997878,2.20702 1.4449528,2.82592 2.3615542,4.25946 0.7619385,1.19166 1.1181464,1.715 2.3658869,3.48817 0.5764944,0.81926 1.8056591,2.37865 2.4352171,3.08519 0.349116,0.3918 1.104948,1.26448 1.67692,1.93691 0.571973,0.67242 1.293441,1.47324 1.94124,2.20989 1.295811,1.47354 2.426611,3.11382 3.891148,4.41979 2.026351,1.80696 3.986615,4.38311 6.560354,5.00476 0.0014,5e-4 0.003,-5e-4 0.0043,0 0.08462,0.0435 0.188619,0.12914 0.271455,0.30137 0.08283,0.17222 0.22811,0.55594 0.144525,0.82091 -0.03503,0.11104 -0.005,0.11279 -0.246995,0.24699 -0.152526,0.0846 -0.874418,0.39124 -1.217602,0.7453 -0.343183,0.35405 -0.764363,0.71449 -0.935955,0.80163 -0.377447,0.19167 -0.42509,0.85499 -0.08234,1.1396 0.126055,0.10466 0.734426,0.44814 1.351935,0.76263 0.617523,0.31448 1.143585,0.5796 1.169944,0.58931 0.188814,0.069 0.880409,-0.5328 0.935956,-0.81463 0.03775,-0.19142 0.15663,-0.62744 0.268654,-0.97061 0.327695,-1.00383 0.268057,-1.62379 -0.212317,-2.1709 -0.43682,-0.49751 -0.267364,0.004 -0.264327,-0.55897 0.0014,-0.18522 -0.01123,-0.39584 0.091,-0.55031 0.08252,-0.12472 0.370389,-0.24259 0.381316,-0.24699 l 0.0043,0 c 1.89644,-0.26167 3.63116,-1.7599 5.130422,-3.00286 1.926376,-1.93634 3.148498,-4.06078 4.549783,-6.12271 0.752508,-1.10463 1.50919,-2.206 2.261892,-3.3105 0.519309,-0.76203 1.433551,-2.09724 1.555585,-2.2879 0.122049,-0.19065 0.543825,-0.84582 0.935956,-1.45593 0.913284,-1.42093 2.039204,-3.31036 2.396225,-4.02114 2.192188,-4.36438 2.597242,-5.31603 3.514159,-8.25027 0.835108,-2.67242 1.317743,-4.8418 1.655255,-7.41831 0.490108,-3.74134 0.281993,-7.97597 -0.567633,-11.51312 -0.390924,-1.62747 -1.225186,-4.22948 -1.577258,-4.91377 -0.09968,-0.19373 -0.480804,-0.94375 -0.844967,-1.66825 -0.638696,-1.27074 -2.428852,-4.08311 -2.781867,-4.3677892 -0.09455,-0.0763 -0.539276,-0.5877 -0.983612,-1.13528 -0.444337,-0.54759 -1.102348,-1.21919 -1.464597,-1.49493 -0.36225,-0.27574 -0.658636,-0.56308 -0.658636,-0.63697 0,-0.0739 -0.198159,-0.2547 -0.441979,-0.40298 -0.243819,-0.14828 -0.758595,-0.52548 -1.143945,-0.8363 -1.113773,-0.89836 -2.407402,-1.71233 -3.713482,-2.33555 -0.665763,-0.31769 -1.240869,-0.57631 -1.278266,-0.57631 -0.0374,0 -0.398994,-0.14826 -0.801635,-0.32931 -1.390248,-0.62516 -3.75027,-1.23888999 -5.585394,-1.45159999 -0.608315,-0.0705 -1.325465,-0.10534 -2.088567,-0.10833 z"
     style="fill:#ff00ff;fill-opacity:1;stroke:none"
     inkscape:connector-curvature="0" />
  <path
     id="path3928"
     d="m 19.314257,68.361709 c 0,0 1.740849,-0.58015 2.633916,-0.52134 0.564277,0.0371 1.062538,0.39071 1.606627,0.54482 0.696642,0.19732 1.300687,0.1873 2.117367,0.48482 0.110955,0.0404 0.254427,0.0724 0.408437,0.0774 0.158433,0.005 0.920384,0.01 0.971785,-0.0247 0.118748,-0.0789 0.02644,-0.37278 -0.113091,-0.34358 -0.0374,0.008 -0.978677,-0.0135 -0.978677,-0.0135"
     style="fill:none;stroke:#000000;stroke-width:2.50000011;stroke-linecap:round;stroke-miterlimit:4;stroke-opacity:1;stroke-dasharray:none"
     inkscape:connector-curvature="0" />
  <path
     style="fill:none;stroke:#000000;stroke-width:0.83196032;stroke-miterlimit:4;stroke-opacity:1;stroke-dasharray:none"
     d="m 25.388038,0.41642981 c -2.289305,-0.009 -4.994978,0.26494 -6.439026,0.70629999 -3.327455,1.01699 -6.480251,2.62403 -8.596923,4.38079 -1.6407741,1.36179 -4.1325619,3.99621 -4.7837719,5.0567592 -0.152526,0.2484 -0.5212565,0.81909 -0.8189607,1.26527 -1.6438288,2.46368 -3.0311324,6.03766 -3.75682081,9.68454 -1.01619652,5.10682 -0.71385244,9.78895 1.03561721,16.08457 0.063577,0.22879 0.2394867,0.75916 0.3899814,1.17861 0.1504933,0.41945 0.4084717,1.13701 0.5719727,1.59459 0.3434568,0.9612 0.4930835,1.30045 1.4342649,3.18918 1.0997878,2.20702 1.4449528,2.82592 2.3615542,4.25946 0.7619385,1.19166 1.1181464,1.715 2.3658869,3.48817 0.5764944,0.81926 1.8056591,2.37865 2.4352171,3.08519 0.349116,0.3918 1.104948,1.26448 1.67692,1.93691 0.571973,0.67242 1.293441,1.47324 1.94124,2.20989 1.295811,1.47354 2.426611,3.11382 3.891148,4.41979 2.026351,1.80696 3.986615,4.38311 6.560354,5.00476 0.0014,5e-4 0.003,-5e-4 0.0043,0 0.08462,0.0435 0.188619,0.12914 0.271455,0.30137 0.08283,0.17222 0.22811,0.55594 0.144525,0.82091 -0.03503,0.11104 -0.005,0.11279 -0.246995,0.24699 -0.152526,0.0846 -0.874418,0.39124 -1.217602,0.7453 -0.343183,0.35405 -0.764363,0.71449 -0.935955,0.80163 -0.377447,0.19167 -0.42509,0.85499 -0.08234,1.1396 0.126055,0.10466 0.734426,0.44814 1.351935,0.76263 0.617523,0.31448 1.143585,0.5796 1.169944,0.58931 0.188814,0.069 0.880409,-0.5328 0.935956,-0.81463 0.03775,-0.19142 0.15663,-0.62744 0.268654,-0.97061 0.327695,-1.00383 0.268057,-1.62379 -0.212317,-2.1709 -0.43682,-0.49751 -0.267364,0.004 -0.264327,-0.55897 0.0014,-0.18522 -0.01123,-0.39584 0.091,-0.55031 0.08252,-0.12472 0.370389,-0.24259 0.381316,-0.24699 l 0.0043,0 c 1.89644,-0.26167 3.63116,-1.7599 5.130422,-3.00286 1.926376,-1.93634 3.148498,-4.06078 4.549783,-6.12271 0.752508,-1.10463 1.50919,-2.206 2.261892,-3.3105 0.519309,-0.76203 1.433551,-2.09724 1.555585,-2.2879 0.122049,-0.19065 0.543825,-0.84582 0.935956,-1.45593 0.913284,-1.42093 2.039204,-3.31036 2.396225,-4.02114 2.192188,-4.36438 2.597242,-5.31603 3.514159,-8.25027 0.835108,-2.67242 1.317743,-4.8418 1.655255,-7.41831 0.490108,-3.74134 0.281993,-7.97597 -0.567633,-11.51312 -0.390924,-1.62747 -1.225186,-4.22948 -1.577258,-4.91377 -0.09968,-0.19373 -0.480804,-0.94375 -0.844967,-1.66825 -0.638696,-1.27074 -2.428852,-4.08311 -2.781867,-4.3677892 -0.09455,-0.0763 -0.539276,-0.5877 -0.983612,-1.13528 -0.444337,-0.54759 -1.102348,-1.21919 -1.464597,-1.49493 -0.36225,-0.27574 -0.658636,-0.56308 -0.658636,-0.63697 0,-0.0739 -0.198159,-0.2547 -0.441979,-0.40298 -0.243819,-0.14828 -0.758595,-0.52548 -1.143945,-0.8363 -1.113773,-0.89836 -2.407402,-1.71233 -3.713482,-2.33555 -0.665763,-0.31769 -1.240869,-0.57631 -1.278266,-0.57631 -0.0374,0 -0.398994,-0.14826 -0.801635,-0.32931 -1.390248,-0.62516 -3.75027,-1.23888999 -5.585394,-1.45159999 -0.608315,-0.0705 -1.325465,-0.10534 -2.088567,-0.10833 z"
     id="path3932"
     inkscape:connector-curvature="0" />
  <path
     style="fill:url(#radialGradient3960);fill-opacity:1;stroke:none"
     d="m 25.388038,0.41642981 c -2.289305,-0.009 -4.994978,0.26494 -6.439026,0.70629999 -3.327455,1.01699 -6.480251,2.62403 -8.596923,4.38079 -1.6407741,1.36179 -4.1325619,3.99621 -4.7837719,5.0567592 -0.152526,0.2484 -0.5212565,0.81909 -0.8189607,1.26527 -1.6438288,2.46368 -3.0311324,6.03766 -3.75682081,9.68454 -1.01619652,5.10682 -0.71385244,9.78895 1.03561721,16.08457 0.063577,0.22879 0.2394867,0.75916 0.3899814,1.17861 0.1504933,0.41945 0.4084717,1.13701 0.5719727,1.59459 0.3434568,0.9612 0.4930835,1.30045 1.4342649,3.18918 1.0997878,2.20702 1.4449528,2.82592 2.3615542,4.25946 0.7619385,1.19166 1.1181464,1.715 2.3658869,3.48817 0.5764944,0.81926 1.8056591,2.37865 2.4352171,3.08519 0.349116,0.3918 1.104948,1.26448 1.67692,1.93691 0.571973,0.67242 1.293441,1.47324 1.94124,2.20989 1.295811,1.47354 2.426611,3.11382 3.891148,4.41979 2.026351,1.80696 3.986615,4.38311 6.560354,5.00476 0.0014,5e-4 0.003,-5e-4 0.0043,0 0.08462,0.0435 0.188619,0.12914 0.271455,0.30137 0.08283,0.17222 0.22811,0.55594 0.144525,0.82091 -0.03503,0.11104 -0.005,0.11279 -0.246995,0.24699 -0.152526,0.0846 -0.874418,0.39124 -1.217602,0.7453 -0.343183,0.35405 -0.764363,0.71449 -0.935955,0.80163 -0.377447,0.19167 -0.42509,0.85499 -0.08234,1.1396 0.126055,0.10466 0.734426,0.44814 1.351935,0.76263 0.617523,0.31448 1.143585,0.5796 1.169944,0.58931 0.188814,0.069 0.880409,-0.5328 0.935956,-0.81463 0.03775,-0.19142 0.15663,-0.62744 0.268654,-0.97061 0.327695,-1.00383 0.268057,-1.62379 -0.212317,-2.1709 -0.43682,-0.49751 -0.267364,0.004 -0.264327,-0.55897 0.0014,-0.18522 -0.01123,-0.39584 0.091,-0.55031 0.08252,-0.12472 0.370389,-0.24259 0.381316,-0.24699 l 0.0043,0 c 1.89644,-0.26167 3.63116,-1.7599 5.130422,-3.00286 1.926376,-1.93634 3.148498,-4.06078 4.549783,-6.12271 0.752508,-1.10463 1.50919,-2.206 2.261892,-3.3105 0.519309,-0.76203 1.433551,-2.09724 1.555585,-2.2879 0.122049,-0.19065 0.543825,-0.84582 0.935956,-1.45593 0.913284,-1.42093 2.039204,-3.31036 2.396225,-4.02114 2.192188,-4.36438 2.597242,-5.31603 3.514159,-8.25027 0.835108,-2.67242 1.317743,-4.8418 1.655255,-7.41831 0.490108,-3.74134 0.281993,-7.97597 -0.567633,-11.51312 -0.390924,-1.62747 -1.225186,-4.22948 -1.577258,-4.91377 -0.09968,-0.19373 -0.480804,-0.94375 -0.844967,-1.66825 -0.638696,-1.27074 -2.428852,-4.08311 -2.781867,-4.3677892 -0.09455,-0.0763 -0.539276,-0.5877 -0.983612,-1.13528 -0.444337,-0.54759 -1.102348,-1.21919 -1.464597,-1.49493 -0.36225,-0.27574 -0.658636,-0.56308 -0.658636,-0.63697 0,-0.0739 -0.198159,-0.2547 -0.441979,-0.40298 -0.243819,-0.14828 -0.758595,-0.52548 -1.143945,-0.8363 -1.113773,-0.89836 -2.407402,-1.71233 -3.713482,-2.33555 -0.665763,-0.31769 -1.240869,-0.57631 -1.278266,-0.57631 -0.0374,0 -0.398994,-0.14826 -0.801635,-0.32931 -1.390248,-0.62516 -3.75027,-1.23888999 -5.585394,-1.45159999 -0.608315,-0.0705 -1.325465,-0.10534 -2.088567,-0.10833 z"
     id="path3936"
     inkscape:connector-curvature="0" />
</svg>
