<?xml version="1.0" encoding="UTF-8" standalone="no"?>
<!-- Created with Inkscape (http://www.inkscape.org/) -->

<svg
   xmlns:dc="http://purl.org/dc/elements/1.1/"
   xmlns:cc="http://creativecommons.org/ns#"
   xmlns:rdf="http://www.w3.org/1999/02/22-rdf-syntax-ns#"
   xmlns:svg="http://www.w3.org/2000/svg"
   xmlns="http://www.w3.org/2000/svg"
   xmlns:xlink="http://www.w3.org/1999/xlink"
   xmlns:sodipodi="http://sodipodi.sourceforge.net/DTD/sodipodi-0.dtd"
   xmlns:inkscape="http://www.inkscape.org/namespaces/inkscape"
   width="50"
   height="200"
   viewBox="0 0 744.09448819 1052.3622047"
   id="svg2"
   version="1.1"
   inkscape:version="0.48.2 r9819"
   sodipodi:docname="balloon.svg">
  <defs
     id="defs4">
    <linearGradient
       id="linearGradient3938">
      <stop
         style="stop-color:#ffffff;stop-opacity:0.71428573;"
         offset="0"
         id="stop3940" />
      <stop
         style="stop-color:#ffffff;stop-opacity:0;"
         offset="1"
         id="stop3942" />
    </linearGradient>
    <radialGradient
       inkscape:collect="always"
       xlink:href="#linearGradient3938"
       id="radialGradient3960"
       cx="1111.5961"
       cy="371.37482"
       fx="1111.5961"
       fy="371.37482"
       r="177.29704"
       gradientTransform="matrix(0.13098882,0.83013058,-0.79843474,0.12598743,1163.7366,-751.91386)"
       gradientUnits="userSpaceOnUse" />
  </defs>
  <sodipodi:namedview
     id="base"
     pagecolor="#ffffff"
     bordercolor="#666666"
     borderopacity="1.0"
     inkscape:pageopacity="0.0"
     inkscape:pageshadow="2"
     inkscape:zoom="0.37417796"
     inkscape:cx="810.21945"
     inkscape:cy="500.02838"
     inkscape:document-units="px"
     inkscape:current-layer="layer1"
     showgrid="false"
     inkscape:window-width="1275"
     inkscape:window-height="747"
     inkscape:window-x="0"
     inkscape:window-y="0"
     inkscape:window-maximized="0" />
  <metadata
     id="metadata7">
    <rdf:RDF>
      <cc:Work
         rdf:about="">
        <dc:format>image/svg+xml</dc:format>
        <dc:type
           rdf:resource="http://purl.org/dc/dcmitype/StillImage" />
        <dc:title></dc:title>
      </cc:Work>
    </rdf:RDF>
  </metadata>

  <g
     inkscape:label="Layer 1"
     inkscape:groupmode="layer"
     id="layer1"
     style="display:inline">
    <path
       style="fill:none;stroke:#000000;stroke-width:6;stroke-linecap:round;stroke-linejoin:miter;stroke-miterlimit:4;stroke-opacity:1;stroke-dasharray:none"
       d="m 310.72062,565.31223 c 0,0 -1.50668,43.21415 2.0581,64.39075 3.73139,22.1663 20.32811,41.91462 20.03086,64.39082 -0.29982,22.67064 -21.61921,41.72013 -21.91466,64.39083 -0.29295,22.47894 17.35753,42.0727 20.0581,64.39075 2.5832,21.34804 -8.52841,43.3818 -3.9419,64.39075 4.73653,21.69612 22.42636,38.44296 31.41378,58.75017 8.00978,18.09821 11.7831,37.89255 19.92924,55.9298 10.70463,23.7023 37.82394,68.241 37.82394,68.241"
       id="path3871"
       inkscape:connector-curvature="0"
       sodipodi:nodetypes="caaaaaaac"
       inkscape:export-filename="/Users/pat/Sites/virtual_balloon/balloon.png"
       inkscape:export-xdpi="6.9908423"
       inkscape:export-ydpi="6.9908423" />
    <path
       style="fill:#ff0000;fill-opacity:1;stroke:#000000;stroke-opacity:1;stroke-width:6;stroke-miterlimit:4;stroke-dasharray:none"
       d="m 305.53125,45.28125 c -16.51015,-0.06468 -36.02317,1.910742 -46.4375,5.09375 -23.99721,7.33441 -46.73481,18.92421 -62,31.59375 -11.83307,9.82103 -29.80355,28.82016 -34.5,36.46875 -1.1,1.79145 -3.75924,5.90718 -5.90625,9.125 -11.8551,17.76774 -21.86017,43.54288 -27.09375,69.84375 -7.32869,36.82976 -5.14822,70.59677 7.46875,116 0.45851,1.65 1.72715,5.475 2.8125,8.5 1.08534,3.025 2.94585,8.2 4.125,11.5 2.47697,6.93206 3.55606,9.3787 10.34375,23 7.93154,15.91674 10.42083,20.38021 17.03125,30.71875 5.49501,8.59406 8.06394,12.36834 17.0625,25.15625 4.15761,5.9084 13.0222,17.15455 17.5625,22.25 2.51778,2.82563 7.96875,9.11929 12.09375,13.96875 4.125,4.84946 9.32815,10.62489 14,15.9375 9.34523,10.62696 17.50043,22.4565 28.0625,31.875 14.6138,13.03155 28.75098,31.6105 47.3125,36.09375 0.009,0.004 0.0223,-0.005 0.0312,0 0.61031,0.31377 1.36031,0.93134 1.95773,2.17341 0.59742,1.24206 1.64508,4.00937 1.04227,5.92034 -0.25261,0.80079 -0.0358,0.81344 -1.78125,1.78125 -1.1,0.60995 -6.30625,2.82157 -8.78125,5.375 -2.475,2.55342 -5.5125,5.15285 -6.75,5.78125 -2.72206,1.3823 -3.06565,6.16615 -0.59375,8.21875 0.90903,0.7548 5.29653,3.2319 9.75,5.5 4.45346,2.268 8.24736,4.18 8.4375,4.25 1.36169,0.4973 6.34933,-3.8425 6.75,-5.875 0.27214,-1.3805 1.12956,-4.525 1.9375,-7 2.36325,-7.2395 1.93311,-11.71056 -1.53125,-15.65625 -3.15028,-3.58798 -1.92815,0.028 -1.90625,-4.03125 0.007,-1.33574 -0.0808,-2.85474 0.65625,-3.96875 0.59509,-0.89945 2.67117,-1.74953 2.75,-1.78125 l 0.0312,0 c 13.67687,-1.88714 26.18746,-12.69218 37,-21.65625 13.89276,-13.96467 22.70659,-29.2859 32.8125,-44.15625 5.42704,-7.96651 10.88407,-15.90944 16.3125,-23.875 3.7452,-5.49562 10.33858,-15.125 11.21875,-16.5 0.88017,-1.375 3.92199,-6.1 6.75,-10.5 6.58645,-10.24761 14.70647,-23.87393 17.28125,-29 15.80983,-31.47543 18.73101,-38.33858 25.34375,-59.5 6.02267,-19.27314 9.50336,-34.91848 11.9375,-53.5 3.5346,-26.98207 2.03368,-57.52174 -4.09375,-83.03125 -2.81928,-11.73713 -8.83585,-30.50251 -11.375,-35.4375 -0.71888,-1.39719 -3.46754,-6.80625 -6.09375,-12.03125 -4.60625,-9.16443 -17.51669,-29.44688 -20.0625,-31.5 -0.68198,-0.55 -3.88927,-4.23839 -7.09375,-8.1875 -3.20448,-3.94912 -7.95,-8.79267 -10.5625,-10.78125 -2.6125,-1.988583 -4.75,-4.06087 -4.75,-4.59375 0,-0.5329 -1.42907,-1.83689 -3.1875,-2.90625 -1.75842,-1.06937 -5.47092,-3.78968 -8.25,-6.03125 C 394.62378,73.42736 385.2943,67.5571 375.875,63.0625 c -4.80148,-2.29112 -8.94903,-4.15625 -9.21875,-4.15625 -0.26972,0 -2.87746,-1.06924 -5.78125,-2.375 -10.02631,-4.50855 -27.04651,-8.93472 -40.28125,-10.46875 -4.38712,-0.508505 -9.55912,-0.75969 -15.0625,-0.78125 z"
       id="path3094"
       inkscape:connector-curvature="0"
       sodipodi:nodetypes="ssssssssssssssssccsacsccccssscsccccssssssssssssssssssss"
       inkscape:export-filename="/Users/pat/Sites/virtual_balloon/balloon.png"
       inkscape:export-xdpi="6.9908423"
       inkscape:export-ydpi="6.9908423" />
    <path
       style="fill:#000000;stroke:#000000;stroke-width:6;stroke-linecap:round;stroke-miterlimit:4;stroke-opacity:1;stroke-dasharray:none"
       d="m 261.72784,535.29457 c 0,0 12.55481,-4.18397 18.99554,-3.75978 4.06946,0.26802 7.66284,2.81771 11.58675,3.92914 5.02416,1.42306 9.38045,1.35079 15.27026,3.49646 0.80014,0.29149 1.83491,0.52189 2.94557,0.55837 1.14258,0.0375 6.63769,0.0684 7.00837,-0.17776 0.85638,-0.56881 0.19068,-2.68847 -0.8156,-2.47786 -0.26963,0.0564 -7.05812,-0.0975 -7.05812,-0.0975"
       id="path3869"
       inkscape:connector-curvature="0"
       sodipodi:nodetypes="caassssc"
       inkscape:export-filename="/Users/pat/Sites/virtual_balloon/balloon.png"
       inkscape:export-xdpi="6.9908423"
       inkscape:export-ydpi="6.9908423" />
    <path
       inkscape:export-ydpi="6.9908423"
       inkscape:export-xdpi="6.9908423"
       inkscape:export-filename="/Users/pat/Sites/virtual_balloon/balloon2.png"
       sodipodi:nodetypes="caaaaaaac"
       inkscape:connector-curvature="0"
       id="path3924"
       d="m 1060.927,568.13255 c 0,0 -1.5067,43.21415 2.0581,64.39075 3.7314,22.1663 20.3281,41.91462 20.0308,64.39082 -0.2998,22.67064 -21.6192,41.72013 -21.9146,64.39083 -0.293,22.47894 17.3575,42.0727 20.0581,64.39075 2.5832,21.34804 -8.5284,43.3818 -3.9419,64.39075 4.7365,21.69612 22.4263,38.44296 31.4137,58.75017 8.0098,18.09821 11.7831,37.89255 19.9293,55.92978 10.7046,23.7023 37.8239,68.241 37.8239,68.241"
       style="fill:none;stroke:#000000;stroke-width:6;stroke-linecap:round;stroke-linejoin:miter;stroke-miterlimit:4;stroke-opacity:1;stroke-dasharray:none" />
    <path
       inkscape:export-ydpi="6.9908423"
       inkscape:export-xdpi="6.9908423"
       inkscape:export-filename="/Users/pat/Sites/virtual_balloon/balloon2.png"
       sodipodi:nodetypes="ssssssssssssssssccsacsccccssscsccccssssssssssssssssssss"
       inkscape:connector-curvature="0"
       id="path3926"
       d="m 1055.7376,48.101575 c -16.5102,-0.06468 -36.0232,1.910742 -46.4375,5.09375 -23.99721,7.33441 -46.73481,18.92421 -62,31.59375 -11.83307,9.82103 -29.80355,28.820155 -34.5,36.468745 -1.1,1.79145 -3.75924,5.90718 -5.90625,9.125 -11.8551,17.76774 -21.86017,43.54288 -27.09375,69.84375 -7.32869,36.82976 -5.14822,70.59677 7.46875,116 0.45851,1.65 1.72715,5.475 2.8125,8.5 1.08534,3.025 2.94585,8.2 4.125,11.5 2.47697,6.93206 3.55606,9.3787 10.34375,23 7.93154,15.91674 10.42083,20.38021 17.03125,30.71875 5.49501,8.59406 8.06394,12.36834 17.0625,25.15625 4.15761,5.9084 13.0222,17.15455 17.5625,22.25 2.51778,2.82563 7.96875,9.11929 12.09375,13.96875 4.125,4.84946 9.32815,10.62489 14,15.9375 9.34523,10.62696 17.50043,22.4565 28.0625,31.875 14.6138,13.03155 28.751,31.6105 47.3125,36.09375 0.01,0.004 0.022,-0.005 0.031,0 0.6103,0.31377 1.3603,0.93134 1.9577,2.17341 0.5974,1.24206 1.6451,4.00937 1.0423,5.92034 -0.2526,0.80079 -0.036,0.81344 -1.7813,1.78125 -1.1,0.60995 -6.3062,2.82157 -8.7812,5.375 -2.475,2.55342 -5.5125,5.15285 -6.75,5.78125 -2.7221,1.3823 -3.0657,6.16615 -0.5938,8.21875 0.9091,0.7548 5.2966,3.2319 9.75,5.5 4.4535,2.268 8.2474,4.18 8.4375,4.25 1.3617,0.4973 6.3494,-3.8425 6.75,-5.875 0.2722,-1.3805 1.1296,-4.525 1.9375,-7 2.3633,-7.2395 1.9332,-11.71056 -1.5312,-15.65625 -3.1503,-3.58798 -1.9282,0.028 -1.9063,-4.03125 0.01,-1.33574 -0.081,-2.85474 0.6563,-3.96875 0.5951,-0.89945 2.6712,-1.74953 2.75,-1.78125 l 0.031,0 c 13.6769,-1.88714 26.1875,-12.69218 37,-21.65625 13.8928,-13.96467 22.7066,-29.2859 32.8125,-44.15625 5.427,-7.96651 10.8841,-15.90944 16.3125,-23.875 3.7452,-5.49562 10.3386,-15.125 11.2187,-16.5 0.8802,-1.375 3.922,-6.1 6.75,-10.5 6.5865,-10.24761 14.7065,-23.87393 17.2813,-29 15.8098,-31.47543 18.731,-38.33858 25.3437,-59.5 6.0227,-19.27314 9.5034,-34.91848 11.9375,-53.5 3.5346,-26.98207 2.0337,-57.52174 -4.0937,-83.03125 -2.8193,-11.73713 -8.8359,-30.50251 -11.375,-35.4375 -0.7189,-1.39719 -3.4675,-6.80625 -6.0938,-12.03125 -4.6062,-9.16443 -17.5166,-29.44688 -20.0625,-31.5 -0.6819,-0.55 -3.8892,-4.23839 -7.0937,-8.1875 -3.2045,-3.94912 -7.95,-8.792665 -10.5625,-10.781245 -2.6125,-1.988583 -4.75,-4.06087 -4.75,-4.59375 0,-0.5329 -1.4291,-1.83689 -3.1875,-2.90625 -1.7584,-1.06937 -5.4709,-3.78968 -8.25,-6.03125 -8.0324,-6.47889 -17.3619,-12.34915 -26.7812,-16.84375 -4.8014,-2.29112 -8.949,-4.15625 -9.2187,-4.15625 -0.2697,0 -2.8775,-1.06924 -5.7813,-2.375 -10.0263,-4.50855 -27.0465,-8.93472 -40.2812,-10.46875 -4.3871,-0.508505 -9.5591,-0.75969 -15.0625,-0.78125 z"
       style="fill:#ff0000;fill-opacity:1;stroke:none;stroke-width:6;stroke-miterlimit:4;stroke-opacity:1;stroke-dasharray:none" />
    <path
       inkscape:export-ydpi="6.9908423"
       inkscape:export-xdpi="6.9908423"
       inkscape:export-filename="/Users/pat/Sites/virtual_balloon/balloon2.png"
       sodipodi:nodetypes="caassssc"
       inkscape:connector-curvature="0"
       id="path3928"
       d="m 1011.9342,538.11489 c 0,0 12.5548,-4.18397 18.9955,-3.75978 4.0695,0.26802 7.6629,2.81771 11.5868,3.92914 5.0241,1.42306 9.3804,1.35079 15.2702,3.49646 0.8002,0.29149 1.8349,0.52189 2.9456,0.55837 1.1426,0.0375 6.6377,0.0684 7.0084,-0.17776 0.8564,-0.56881 0.1907,-2.68847 -0.8156,-2.47786 -0.2697,0.0564 -7.0581,-0.0975 -7.0581,-0.0975"
       style="fill:none;stroke:#000000;stroke-width:6;stroke-linecap:round;stroke-miterlimit:4;stroke-opacity:1;stroke-dasharray:none" />
    <path
       style="fill:none;fill-opacity:1;stroke:#000000;stroke-width:6;stroke-miterlimit:4;stroke-opacity:1;stroke-dasharray:none"
       d="m 1055.7376,48.101575 c -16.5102,-0.06468 -36.0232,1.910742 -46.4375,5.09375 -23.99721,7.33441 -46.73481,18.92421 -62,31.59375 -11.83307,9.82103 -29.80355,28.820155 -34.5,36.468745 -1.1,1.79145 -3.75924,5.90718 -5.90625,9.125 -11.8551,17.76774 -21.86017,43.54288 -27.09375,69.84375 -7.32869,36.82976 -5.14822,70.59677 7.46875,116 0.45851,1.65 1.72715,5.475 2.8125,8.5 1.08534,3.025 2.94585,8.2 4.125,11.5 2.47697,6.93206 3.55606,9.3787 10.34375,23 7.93154,15.91674 10.42083,20.38021 17.03125,30.71875 5.49501,8.59406 8.06394,12.36834 17.0625,25.15625 4.15761,5.9084 13.0222,17.15455 17.5625,22.25 2.51778,2.82563 7.96875,9.11929 12.09375,13.96875 4.125,4.84946 9.32815,10.62489 14,15.9375 9.34523,10.62696 17.50043,22.4565 28.0625,31.875 14.6138,13.03155 28.751,31.6105 47.3125,36.09375 0.01,0.004 0.022,-0.005 0.031,0 0.6103,0.31377 1.3603,0.93134 1.9577,2.17341 0.5974,1.24206 1.6451,4.00937 1.0423,5.92034 -0.2526,0.80079 -0.036,0.81344 -1.7813,1.78125 -1.1,0.60995 -6.3062,2.82157 -8.7812,5.375 -2.475,2.55342 -5.5125,5.15285 -6.75,5.78125 -2.7221,1.3823 -3.0657,6.16615 -0.5938,8.21875 0.9091,0.7548 5.2966,3.2319 9.75,5.5 4.4535,2.268 8.2474,4.18 8.4375,4.25 1.3617,0.4973 6.3494,-3.8425 6.75,-5.875 0.2722,-1.3805 1.1296,-4.525 1.9375,-7 2.3633,-7.2395 1.9332,-11.71056 -1.5312,-15.65625 -3.1503,-3.58798 -1.9282,0.028 -1.9063,-4.03125 0.01,-1.33574 -0.081,-2.85474 0.6563,-3.96875 0.5951,-0.89945 2.6712,-1.74953 2.75,-1.78125 l 0.031,0 c 13.6769,-1.88714 26.1875,-12.69218 37,-21.65625 13.8928,-13.96467 22.7066,-29.2859 32.8125,-44.15625 5.427,-7.96651 10.8841,-15.90944 16.3125,-23.875 3.7452,-5.49562 10.3386,-15.125 11.2187,-16.5 0.8802,-1.375 3.922,-6.1 6.75,-10.5 6.5865,-10.24761 14.7065,-23.87393 17.2813,-29 15.8098,-31.47543 18.731,-38.33858 25.3437,-59.5 6.0227,-19.27314 9.5034,-34.91848 11.9375,-53.5 3.5346,-26.98207 2.0337,-57.52174 -4.0937,-83.03125 -2.8193,-11.73713 -8.8359,-30.50251 -11.375,-35.4375 -0.7189,-1.39719 -3.4675,-6.80625 -6.0938,-12.03125 -4.6062,-9.16443 -17.5166,-29.44688 -20.0625,-31.5 -0.6819,-0.55 -3.8892,-4.23839 -7.0937,-8.1875 -3.2045,-3.94912 -7.95,-8.792665 -10.5625,-10.781245 -2.6125,-1.988583 -4.75,-4.06087 -4.75,-4.59375 0,-0.5329 -1.4291,-1.83689 -3.1875,-2.90625 -1.7584,-1.06937 -5.4709,-3.78968 -8.25,-6.03125 -8.0324,-6.47889 -17.3619,-12.34915 -26.7812,-16.84375 -4.8014,-2.29112 -8.949,-4.15625 -9.2187,-4.15625 -0.2697,0 -2.8775,-1.06924 -5.7813,-2.375 -10.0263,-4.50855 -27.0465,-8.93472 -40.2812,-10.46875 -4.3871,-0.508505 -9.5591,-0.75969 -15.0625,-0.78125 z"
       id="path3932"
       inkscape:connector-curvature="0"
       sodipodi:nodetypes="ssssssssssssssssccsacsccccssscsccccssssssssssssssssssss"
       inkscape:export-filename="/Users/pat/Sites/virtual_balloon/balloon2.png"
       inkscape:export-xdpi="6.9908423"
       inkscape:export-ydpi="6.9908423" />
    <path
       style="fill:url(#radialGradient3960);fill-opacity:1;stroke:none;stroke-width:6;stroke-miterlimit:4;stroke-opacity:1;stroke-dasharray:none"
       d="m 1055.7376,48.101575 c -16.5102,-0.06468 -36.0232,1.910742 -46.4375,5.09375 -23.99721,7.33441 -46.73481,18.92421 -62,31.59375 -11.83307,9.82103 -29.80355,28.820155 -34.5,36.468745 -1.1,1.79145 -3.75924,5.90718 -5.90625,9.125 -11.8551,17.76774 -21.86017,43.54288 -27.09375,69.84375 -7.32869,36.82976 -5.14822,70.59677 7.46875,116 0.45851,1.65 1.72715,5.475 2.8125,8.5 1.08534,3.025 2.94585,8.2 4.125,11.5 2.47697,6.93206 3.55606,9.3787 10.34375,23 7.93154,15.91674 10.42083,20.38021 17.03125,30.71875 5.49501,8.59406 8.06394,12.36834 17.0625,25.15625 4.15761,5.9084 13.0222,17.15455 17.5625,22.25 2.51778,2.82563 7.96875,9.11929 12.09375,13.96875 4.125,4.84946 9.32815,10.62489 14,15.9375 9.34523,10.62696 17.50043,22.4565 28.0625,31.875 14.6138,13.03155 28.751,31.6105 47.3125,36.09375 0.01,0.004 0.022,-0.005 0.031,0 0.6103,0.31377 1.3603,0.93134 1.9577,2.17341 0.5974,1.24206 1.6451,4.00937 1.0423,5.92034 -0.2526,0.80079 -0.036,0.81344 -1.7813,1.78125 -1.1,0.60995 -6.3062,2.82157 -8.7812,5.375 -2.475,2.55342 -5.5125,5.15285 -6.75,5.78125 -2.7221,1.3823 -3.0657,6.16615 -0.5938,8.21875 0.9091,0.7548 5.2966,3.2319 9.75,5.5 4.4535,2.268 8.2474,4.18 8.4375,4.25 1.3617,0.4973 6.3494,-3.8425 6.75,-5.875 0.2722,-1.3805 1.1296,-4.525 1.9375,-7 2.3633,-7.2395 1.9332,-11.71056 -1.5312,-15.65625 -3.1503,-3.58798 -1.9282,0.028 -1.9063,-4.03125 0.01,-1.33574 -0.081,-2.85474 0.6563,-3.96875 0.5951,-0.89945 2.6712,-1.74953 2.75,-1.78125 l 0.031,0 c 13.6769,-1.88714 26.1875,-12.69218 37,-21.65625 13.8928,-13.96467 22.7066,-29.2859 32.8125,-44.15625 5.427,-7.96651 10.8841,-15.90944 16.3125,-23.875 3.7452,-5.49562 10.3386,-15.125 11.2187,-16.5 0.8802,-1.375 3.922,-6.1 6.75,-10.5 6.5865,-10.24761 14.7065,-23.87393 17.2813,-29 15.8098,-31.47543 18.731,-38.33858 25.3437,-59.5 6.0227,-19.27314 9.5034,-34.91848 11.9375,-53.5 3.5346,-26.98207 2.0337,-57.52174 -4.0937,-83.03125 -2.8193,-11.73713 -8.8359,-30.50251 -11.375,-35.4375 -0.7189,-1.39719 -3.4675,-6.80625 -6.0938,-12.03125 -4.6062,-9.16443 -17.5166,-29.44688 -20.0625,-31.5 -0.6819,-0.55 -3.8892,-4.23839 -7.0937,-8.1875 -3.2045,-3.94912 -7.95,-8.792665 -10.5625,-10.781245 -2.6125,-1.988583 -4.75,-4.06087 -4.75,-4.59375 0,-0.5329 -1.4291,-1.83689 -3.1875,-2.90625 -1.7584,-1.06937 -5.4709,-3.78968 -8.25,-6.03125 -8.0324,-6.47889 -17.3619,-12.34915 -26.7812,-16.84375 -4.8014,-2.29112 -8.949,-4.15625 -9.2187,-4.15625 -0.2697,0 -2.8775,-1.06924 -5.7813,-2.375 -10.0263,-4.50855 -27.0465,-8.93472 -40.2812,-10.46875 -4.3871,-0.508505 -9.5591,-0.75969 -15.0625,-0.78125 z"
       id="path3936"
       inkscape:connector-curvature="0"
       sodipodi:nodetypes="ssssssssssssssssccsacsccccssscsccccssssssssssssssssssss"
       inkscape:export-filename="/Users/pat/Sites/virtual_balloon/balloon2.png"
       inkscape:export-xdpi="6.9908423"
       inkscape:export-ydpi="6.9908423" />
  </g>
</svg>
