<?xml version="1.0" encoding="UTF-8" standalone="no"?>
<!-- Created with Inkscape (http://www.inkscape.org/) -->

<svg
   xmlns:dc="http://purl.org/dc/elements/1.1/"
   xmlns:cc="http://creativecommons.org/ns#"
   xmlns:rdf="http://www.w3.org/1999/02/22-rdf-syntax-ns#"
   xmlns:svg="http://www.w3.org/2000/svg"
   xmlns="http://www.w3.org/2000/svg"
   xmlns:xlink="http://www.w3.org/1999/xlink"
   xmlns:sodipodi="http://sodipodi.sourceforge.net/DTD/sodipodi-0.dtd"
   xmlns:inkscape="http://www.inkscape.org/namespaces/inkscape"
   width="50"
   height="200"
   viewBox="0 0 50 142.94"
   preserveAspectRatio="xMinYMin meet"
   style="fill:#aaaaaa"
   id="svg2"
   version="1.1"
   inkscape:version="0.48.2 r9819"
   sodipodi:docname="balloon_color.svg">
  <metadata
     id="metadata4417">
    <rdf:RDF>
      <cc:Work
         rdf:about="">
        <dc:format>image/svg+xml</dc:format>
        <dc:type
           rdf:resource="http://purl.org/dc/dcmitype/StillImage" />
      </cc:Work>
    </rdf:RDF>
  </metadata>
  <sodipodi:namedview
     pagecolor="#ffffff"
     bordercolor="#666666"
     borderopacity="1"
     objecttolerance="10"
     gridtolerance="10"
     guidetolerance="10"
     inkscape:pageopacity="0"
     inkscape:pageshadow="2"
     inkscape:window-width="843"
     inkscape:window-height="588"
     id="namedview4415"
     showgrid="false"
     inkscape:zoom="0.78666667"
     inkscape:cx="50"
     inkscape:cy="150"
     inkscape:window-x="0"
     inkscape:window-y="0"
     inkscape:window-maximized="0"
     inkscape:current-layer="svg2" />
  <defs
     id="defs4">
    <linearGradient
       id="linearGradient3938">
      <stop
         style="stop-color:#ffffff;stop-opacity:0.71428573;"
         offset="0"
         id="stop3940" />
      <stop
         style="stop-color:#ffffff;stop-opacity:0;"
         offset="1"
         id="stop3942" />
    </linearGradient>
    <radialGradient
       inkscape:collect="always"
       xlink:href="#linearGradient3938"
       id="radialGradient3960"
       cx="1111.5961"
       cy="371.37482"
       fx="1111.5961"
       fy="371.37482"
       r="177.29704"
       gradientTransform="matrix(0.01816292,0.11510595,-0.110711,0.01746942,40.366857,-110.51966)"
       gradientUnits="userSpaceOnUse" />
  </defs>
  <path
     id="path3924"
     d="m 26.111273,72.51804 c 0,0 -0.208919,5.99208 0.285376,8.92843 0.517396,3.07358 2.818696,5.81188 2.777472,8.92843 -0.04157,3.14351 -2.99772,5.78492 -3.03868,8.92844 -0.04062,3.11693 2.406792,5.8338 2.781258,8.92842 0.358186,2.96012 -1.182549,6.01533 -0.546585,8.92844 0.656764,3.00835 3.109632,5.3305 4.355826,8.1463 1.110639,2.5095 1.633845,5.25415 2.763398,7.7552 1.4843,3.2866 5.244663,9.4623 5.244663,9.4623"
     style="fill:none;stroke:#000000;stroke-width:0.83196032;stroke-linecap:round;stroke-linejoin:miter;stroke-miterlimit:4;stroke-opacity:1;stroke-dasharray:none"
     inkscape:connector-curvature="0" />
  <path
     id="color_fill"
     d="M 25.39171,0.41052 C 23.102405,0.40152 20.396732,0.67546 18.952684,1.11682 15.625229,2.13381 12.472433,3.74085 10.355761,5.49761 8.7149869,6.8594 6.2231991,9.49382 5.5719891,10.55437 5.4194631,10.80277 5.0507326,11.37346 4.7530284,11.81964 3.1091996,14.28332 1.721896,17.8573 0.99620756,21.50418 -0.01998896,26.611 0.28235512,31.29313 2.0318248,37.58875 c 0.063577,0.22879 0.2394867,0.75916 0.3899814,1.17861 0.1504933,0.41945 0.4084717,1.13701 0.5719727,1.59459 0.3434568,0.9612 0.4930835,1.30045 1.4342649,3.18918 1.0997878,2.20702 1.4449528,2.82592 2.3615542,4.25946 0.7619385,1.19166 1.1181464,1.715 2.3658869,3.48817 0.5764944,0.81926 1.8056591,2.37865 2.4352171,3.08519 0.349116,0.3918 1.104948,1.26448 1.67692,1.93691 0.571973,0.67242 1.293441,1.47324 1.94124,2.20989 1.295811,1.47354 2.426611,3.11382 3.891148,4.41979 2.026351,1.80696 3.986615,4.38311 6.560354,5.00476 0.0014,5e-4 0.003,-5e-4 0.0043,0 0.08462,0.0435 0.188619,0.12914 0.271455,0.30137 0.08283,0.17222 0.22811,0.55594 0.144525,0.82091 -0.03503,0.11104 -0.005,0.11279 -0.246995,0.24699 -0.152526,0.0846 -0.874418,0.39124 -1.217602,0.7453 -0.343183,0.35405 -0.764363,0.71449 -0.935955,0.80163 -0.377447,0.19167 -0.42509,0.85499 -0.08234,1.1396 0.126055,0.10466 0.734426,0.44814 1.351935,0.76263 0.617523,0.31448 1.143585,0.5796 1.169944,0.58931 0.188814,0.069 0.880409,-0.5328 0.935956,-0.81463 0.03775,-0.19142 0.15663,-0.62744 0.268654,-0.97061 0.327695,-1.00383 0.268057,-1.62379 -0.212317,-2.1709 -0.43682,-0.49751 -0.267364,0.004 -0.264327,-0.55897 0.0014,-0.18522 -0.01123,-0.39584 0.091,-0.55031 0.08252,-0.12472 0.370389,-0.24259 0.381316,-0.24699 l 0.0043,0 c 1.89644,-0.26167 3.63116,-1.7599 5.130422,-3.00286 1.926376,-1.93634 3.148498,-4.06078 4.549783,-6.12271 0.752508,-1.10463 1.50919,-2.206 2.261892,-3.3105 0.519309,-0.76203 1.433551,-2.09724 1.555585,-2.2879 0.122049,-0.19065 0.543825,-0.84582 0.935956,-1.45593 0.913284,-1.42093 2.039204,-3.31036 2.396225,-4.02114 2.192188,-4.36438 2.597242,-5.31603 3.514159,-8.25027 0.835108,-2.67242 1.317743,-4.8418 1.655255,-7.41831 0.490108,-3.74134 0.281993,-7.97597 -0.567633,-11.51312 -0.390924,-1.62747 -1.225186,-4.22948 -1.577258,-4.91377 -0.09968,-0.19373 -0.480804,-0.94375 -0.844967,-1.66825 C 45.694936,12.81513 43.90478,10.00276 43.551765,9.71808 43.457215,9.64178 43.012489,9.13038 42.568153,8.5828 42.123816,8.03521 41.465805,7.36361 41.103556,7.08787 40.741306,6.81213 40.44492,6.52479 40.44492,6.4509 40.44492,6.377 40.246761,6.1962 40.002941,6.04792 39.759122,5.89964 39.244346,5.52244 38.858996,5.21162 37.745223,4.31326 36.451594,3.49929 35.145514,2.87607 34.479751,2.55838 33.904645,2.29976 33.867248,2.29976 c -0.0374,0 -0.398994,-0.14826 -0.801635,-0.32931 C 31.675365,1.34529 29.315343,0.73156 27.480219,0.51885 26.871904,0.44835 26.154754,0.41351 25.391652,0.41052 z"
     style="fill:#ff00ff;fill-opacity:1;stroke:none"
     inkscape:connector-curvature="0" />
  <path
     id="path3928"
     d="m 19.317929,68.3558 c 0,0 1.740849,-0.58015 2.633916,-0.52134 0.564277,0.0371 1.062538,0.39071 1.606627,0.54482 0.696642,0.19732 1.300687,0.1873 2.117367,0.48482 0.110955,0.0404 0.254427,0.0724 0.408437,0.0774 0.158433,0.005 0.920384,0.01 0.971785,-0.0247 0.118748,-0.0789 0.02644,-0.37278 -0.113091,-0.34358 -0.0374,0.008 -0.978677,-0.0135 -0.978677,-0.0135"
     style="fill:none;stroke:#000000;stroke-width:0.83196032;stroke-linecap:round;stroke-miterlimit:4;stroke-opacity:1;stroke-dasharray:none"
     inkscape:connector-curvature="0" />
  <path
     style="fill:none;stroke:#000000;stroke-width:0.83196032;stroke-miterlimit:4;stroke-opacity:1;stroke-dasharray:none"
     d="M 25.39171,0.41052 C 23.102405,0.40152 20.396732,0.67546 18.952684,1.11682 15.625229,2.13381 12.472433,3.74085 10.355761,5.49761 8.7149869,6.8594 6.2231991,9.49382 5.5719891,10.55437 5.4194631,10.80277 5.0507326,11.37346 4.7530284,11.81964 3.1091996,14.28332 1.721896,17.8573 0.99620756,21.50418 -0.01998896,26.611 0.28235512,31.29313 2.0318248,37.58875 c 0.063577,0.22879 0.2394867,0.75916 0.3899814,1.17861 0.1504933,0.41945 0.4084717,1.13701 0.5719727,1.59459 0.3434568,0.9612 0.4930835,1.30045 1.4342649,3.18918 1.0997878,2.20702 1.4449528,2.82592 2.3615542,4.25946 0.7619385,1.19166 1.1181464,1.715 2.3658869,3.48817 0.5764944,0.81926 1.8056591,2.37865 2.4352171,3.08519 0.349116,0.3918 1.104948,1.26448 1.67692,1.93691 0.571973,0.67242 1.293441,1.47324 1.94124,2.20989 1.295811,1.47354 2.426611,3.11382 3.891148,4.41979 2.026351,1.80696 3.986615,4.38311 6.560354,5.00476 0.0014,5e-4 0.003,-5e-4 0.0043,0 0.08462,0.0435 0.188619,0.12914 0.271455,0.30137 0.08283,0.17222 0.22811,0.55594 0.144525,0.82091 -0.03503,0.11104 -0.005,0.11279 -0.246995,0.24699 -0.152526,0.0846 -0.874418,0.39124 -1.217602,0.7453 -0.343183,0.35405 -0.764363,0.71449 -0.935955,0.80163 -0.377447,0.19167 -0.42509,0.85499 -0.08234,1.1396 0.126055,0.10466 0.734426,0.44814 1.351935,0.76263 0.617523,0.31448 1.143585,0.5796 1.169944,0.58931 0.188814,0.069 0.880409,-0.5328 0.935956,-0.81463 0.03775,-0.19142 0.15663,-0.62744 0.268654,-0.97061 0.327695,-1.00383 0.268057,-1.62379 -0.212317,-2.1709 -0.43682,-0.49751 -0.267364,0.004 -0.264327,-0.55897 0.0014,-0.18522 -0.01123,-0.39584 0.091,-0.55031 0.08252,-0.12472 0.370389,-0.24259 0.381316,-0.24699 l 0.0043,0 c 1.89644,-0.26167 3.63116,-1.7599 5.130422,-3.00286 1.926376,-1.93634 3.148498,-4.06078 4.549783,-6.12271 0.752508,-1.10463 1.50919,-2.206 2.261892,-3.3105 0.519309,-0.76203 1.433551,-2.09724 1.555585,-2.2879 0.122049,-0.19065 0.543825,-0.84582 0.935956,-1.45593 0.913284,-1.42093 2.039204,-3.31036 2.396225,-4.02114 2.192188,-4.36438 2.597242,-5.31603 3.514159,-8.25027 0.835108,-2.67242 1.317743,-4.8418 1.655255,-7.41831 0.490108,-3.74134 0.281993,-7.97597 -0.567633,-11.51312 -0.390924,-1.62747 -1.225186,-4.22948 -1.577258,-4.91377 -0.09968,-0.19373 -0.480804,-0.94375 -0.844967,-1.66825 C 45.694936,12.81513 43.90478,10.00276 43.551765,9.71808 43.457215,9.64178 43.012489,9.13038 42.568153,8.5828 42.123816,8.03521 41.465805,7.36361 41.103556,7.08787 40.741306,6.81213 40.44492,6.52479 40.44492,6.4509 40.44492,6.377 40.246761,6.1962 40.002941,6.04792 39.759122,5.89964 39.244346,5.52244 38.858996,5.21162 37.745223,4.31326 36.451594,3.49929 35.145514,2.87607 34.479751,2.55838 33.904645,2.29976 33.867248,2.29976 c -0.0374,0 -0.398994,-0.14826 -0.801635,-0.32931 C 31.675365,1.34529 29.315343,0.73156 27.480219,0.51885 26.871904,0.44835 26.154754,0.41351 25.391652,0.41052 z"
     id="path3932"
     inkscape:connector-curvature="0" />
  <path
     style="fill:url(#radialGradient3960);fill-opacity:1;stroke:none"
     d="M 25.39171,0.41052 C 23.102405,0.40152 20.396732,0.67546 18.952684,1.11682 15.625229,2.13381 12.472433,3.74085 10.355761,5.49761 8.7149869,6.8594 6.2231991,9.49382 5.5719891,10.55437 5.4194631,10.80277 5.0507326,11.37346 4.7530284,11.81964 3.1091996,14.28332 1.721896,17.8573 0.99620756,21.50418 -0.01998896,26.611 0.28235512,31.29313 2.0318248,37.58875 c 0.063577,0.22879 0.2394867,0.75916 0.3899814,1.17861 0.1504933,0.41945 0.4084717,1.13701 0.5719727,1.59459 0.3434568,0.9612 0.4930835,1.30045 1.4342649,3.18918 1.0997878,2.20702 1.4449528,2.82592 2.3615542,4.25946 0.7619385,1.19166 1.1181464,1.715 2.3658869,3.48817 0.5764944,0.81926 1.8056591,2.37865 2.4352171,3.08519 0.349116,0.3918 1.104948,1.26448 1.67692,1.93691 0.571973,0.67242 1.293441,1.47324 1.94124,2.20989 1.295811,1.47354 2.426611,3.11382 3.891148,4.41979 2.026351,1.80696 3.986615,4.38311 6.560354,5.00476 0.0014,5e-4 0.003,-5e-4 0.0043,0 0.08462,0.0435 0.188619,0.12914 0.271455,0.30137 0.08283,0.17222 0.22811,0.55594 0.144525,0.82091 -0.03503,0.11104 -0.005,0.11279 -0.246995,0.24699 -0.152526,0.0846 -0.874418,0.39124 -1.217602,0.7453 -0.343183,0.35405 -0.764363,0.71449 -0.935955,0.80163 -0.377447,0.19167 -0.42509,0.85499 -0.08234,1.1396 0.126055,0.10466 0.734426,0.44814 1.351935,0.76263 0.617523,0.31448 1.143585,0.5796 1.169944,0.58931 0.188814,0.069 0.880409,-0.5328 0.935956,-0.81463 0.03775,-0.19142 0.15663,-0.62744 0.268654,-0.97061 0.327695,-1.00383 0.268057,-1.62379 -0.212317,-2.1709 -0.43682,-0.49751 -0.267364,0.004 -0.264327,-0.55897 0.0014,-0.18522 -0.01123,-0.39584 0.091,-0.55031 0.08252,-0.12472 0.370389,-0.24259 0.381316,-0.24699 l 0.0043,0 c 1.89644,-0.26167 3.63116,-1.7599 5.130422,-3.00286 1.926376,-1.93634 3.148498,-4.06078 4.549783,-6.12271 0.752508,-1.10463 1.50919,-2.206 2.261892,-3.3105 0.519309,-0.76203 1.433551,-2.09724 1.555585,-2.2879 0.122049,-0.19065 0.543825,-0.84582 0.935956,-1.45593 0.913284,-1.42093 2.039204,-3.31036 2.396225,-4.02114 2.192188,-4.36438 2.597242,-5.31603 3.514159,-8.25027 0.835108,-2.67242 1.317743,-4.8418 1.655255,-7.41831 0.490108,-3.74134 0.281993,-7.97597 -0.567633,-11.51312 -0.390924,-1.62747 -1.225186,-4.22948 -1.577258,-4.91377 -0.09968,-0.19373 -0.480804,-0.94375 -0.844967,-1.66825 C 45.694936,12.81513 43.90478,10.00276 43.551765,9.71808 43.457215,9.64178 43.012489,9.13038 42.568153,8.5828 42.123816,8.03521 41.465805,7.36361 41.103556,7.08787 40.741306,6.81213 40.44492,6.52479 40.44492,6.4509 40.44492,6.377 40.246761,6.1962 40.002941,6.04792 39.759122,5.89964 39.244346,5.52244 38.858996,5.21162 37.745223,4.31326 36.451594,3.49929 35.145514,2.87607 34.479751,2.55838 33.904645,2.29976 33.867248,2.29976 c -0.0374,0 -0.398994,-0.14826 -0.801635,-0.32931 C 31.675365,1.34529 29.315343,0.73156 27.480219,0.51885 26.871904,0.44835 26.154754,0.41351 25.391652,0.41052 z"
     id="path3936"
     inkscape:connector-curvature="0" />
</svg>
